[ConversionWorker] Logging FFmpeg output to: ffmpeg_logs\ffmpeg_conversion_高冷_03_wav_20250525_173658.log\n[ConversionWorker] Getting duration with command: ffprobe -v error -show_entries format=duration -of default=noprint_wrappers=1:nokey=1 Z:\Story\高冷\高冷 03.wav\n[ConversionWorker] Duration for 高冷 03.wav: 2702289 ms\n[ConversionWorker] Starting FFmpeg for 高冷 03.wav: ffmpeg -i Z:\Story\高冷\高冷 03.wav -b:a 128k -vn -y -loglevel error -stats -progress pipe:1 Z:\Story\高冷\高冷 03.mp3\n[ConversionWorker] FFmpeg process started. PID: 2024\n[STDOUT RAW] bitrate= 123.3kbits/s\n[STDOUT RAW] total_size=69932\n[STDOUT RAW] out_time_us=4537958\n[STDOUT RAW] out_time_ms=4537958\n[STDOUT RAW] out_time=00:00:04.537958\n[STDOUT RAW] dup_frames=0\n[STDOUT RAW] drop_frames=0\n[STDOUT RAW] speed= 8.8x\n[STDOUT RAW] progress=continue\n[STDERR RAW] size=      68KiB time=00:00:04.53 bitrate= 123.3kbits/s speed= 8.8x\n[STDOUT RAW] bitrate= 125.6kbits/s\n[STDOUT RAW] total_size=137900\n[STDOUT RAW] out_time_us=8785958\n[STDOUT RAW] out_time_ms=8785958\n[STDOUT RAW] out_time=00:00:08.785958\n[STDOUT RAW] dup_frames=0\n[STDOUT RAW] drop_frames=0\n[STDOUT RAW] speed=8.61x\n[STDOUT RAW] progress=continue\n[STDERR RAW] size=     135KiB time=00:00:08.78 bitrate= 125.6kbits/s speed=8.61x\n[STDOUT RAW] bitrate= 126.4kbits/s\n[STDOUT RAW] total_size=214316\n[STDOUT RAW] out_time_us=13561958\n[STDOUT RAW] out_time_ms=13561958\n[STDOUT RAW] out_time=00:00:13.561958\n[STDOUT RAW] dup_frames=0\n[STDOUT RAW] drop_frames=0\n[STDOUT RAW] speed=8.79x\n[STDOUT RAW] progress=continue\n[STDERR RAW] size=     209KiB time=00:00:13.56 bitrate= 126.4kbits/s speed=8.79x\n[STDOUT RAW] bitrate= 117.3kbits/s\n[STDOUT RAW] total_size=786432\n[STDOUT RAW] out_time_us=53617958\n[STDOUT RAW] out_time_ms=53617958\n[STDOUT RAW] out_time=00:00:53.617958\n[STDOUT RAW] dup_frames=0\n[STDOUT RAW] drop_frames=0\n[STDOUT RAW] speed=  26x\n[STDOUT RAW] progress=continue\n[STDERR RAW] size=     768KiB time=00:00:53.61 bitrate= 117.3kbits/s speed=  26x\n[STDOUT RAW] bitrate= 117.3kbits/s\n[STDOUT RAW] total_size=2621440\n[STDOUT RAW] out_time_us=178729958\n[STDOUT RAW] out_time_ms=178729958\n[STDOUT RAW] out_time=00:02:58.729958\n[STDOUT RAW] dup_frames=0\n[STDOUT RAW] drop_frames=0\n[STDOUT RAW] speed=69.5x\n[STDOUT RAW] progress=continue\n[STDERR RAW] size=    2560KiB time=00:02:58.72 bitrate= 117.3kbits/s speed=69.5x\n[STDOUT RAW] bitrate= 123.2kbits/s\n[STDOUT RAW] total_size=4718592\n[STDOUT RAW] out_time_us=306313958\n[STDOUT RAW] out_time_ms=306313958\n[STDOUT RAW] out_time=00:05:06.313958\n[STDOUT RAW] dup_frames=0\n[STDOUT RAW] drop_frames=0\n[STDOUT RAW] speed=  99x\n[STDOUT RAW] progress=continue\n[STDERR RAW] size=    4608KiB time=00:05:06.31 bitrate= 123.2kbits/s speed=  99x\n[STDOUT RAW] bitrate= 126.2kbits/s\n[STDOUT RAW] total_size=6815744\n[STDOUT RAW] out_time_us=431929958\n[STDOUT RAW] out_time_ms=431929958\n[STDOUT RAW] out_time=00:07:11.929958\n[STDOUT RAW] dup_frames=0\n[STDOUT RAW] drop_frames=0\n[STDOUT RAW] speed= 120x\n[STDOUT RAW] progress=continue\n[STDERR RAW] size=    6656KiB time=00:07:11.92 bitrate= 126.2kbits/s speed= 120x\n[STDOUT RAW] bitrate= 127.7kbits/s\n[STDOUT RAW] total_size=8912896\n[STDOUT RAW] out_time_us=558505958\n[STDOUT RAW] out_time_ms=558505958\n[STDOUT RAW] out_time=00:09:18.505958\n[STDOUT RAW] dup_frames=0\n[STDOUT RAW] drop_frames=0\n[STDOUT RAW] speed= 136x\n[STDOUT RAW] progress=continue\n[STDOUT RAW] bitrate= 125.3kbits/s\n[STDERR RAW] size=    8704KiB time=00:09:18.50 bitrate= 127.7kbits/s speed= 136x\n[STDOUT RAW] total_size=10747904\n[STDOUT RAW] out_time_us=686473958\n[STDOUT RAW] out_time_ms=686473958\n[STDOUT RAW] out_time=00:11:26.473958\n[STDOUT RAW] dup_frames=0\n[STDOUT RAW] drop_frames=0\n[STDOUT RAW] speed= 148x\n[STDOUT RAW] progress=continue\n[STDERR RAW] size=   10496KiB time=00:11:26.47 bitrate= 125.3kbits/s speed= 148x\n[STDOUT RAW] bitrate= 125.7kbits/s\n[STDOUT RAW] total_size=12845056\n[STDOUT RAW] out_time_us=817513958\n[STDOUT RAW] out_time_ms=817513958\n[STDOUT RAW] out_time=00:13:37.513958\n[STDOUT RAW] dup_frames=0\n[STDOUT RAW] drop_frames=0\n[STDOUT RAW] speed= 158x\n[STDOUT RAW] progress=continue\n[STDERR RAW] size=   12544KiB time=00:13:37.51 bitrate= 125.7kbits/s speed= 158x\n[STDOUT RAW] bitrate= 126.6kbits/s\n[STDOUT RAW] total_size=14942208\n[STDOUT RAW] out_time_us=944113958\n[STDOUT RAW] out_time_ms=944113958\n[STDOUT RAW] out_time=00:15:44.113958\n[STDOUT RAW] dup_frames=0\n[STDOUT RAW] drop_frames=0\n[STDOUT RAW] speed= 167x\n[STDOUT RAW] progress=continue\n[STDERR RAW] size=   14592KiB time=00:15:44.11 bitrate= 126.6kbits/s speed= 167x\n[STDOUT RAW] bitrate= 127.3kbits/s\n[STDOUT RAW] total_size=17039360\n[STDOUT RAW] out_time_us=1070545958\n[STDOUT RAW] out_time_ms=1070545958\n[STDOUT RAW] out_time=00:17:50.545958\n[STDOUT RAW] dup_frames=0\n[STDOUT RAW] drop_frames=0\n[STDOUT RAW] speed= 173x\n[STDOUT RAW] progress=continue\n[STDERR RAW] size=   16640KiB time=00:17:50.54 bitrate= 127.3kbits/s speed= 173x\n[STDOUT RAW] bitrate= 126.6kbits/s\n[STDOUT RAW] total_size=18874368\n[STDOUT RAW] out_time_us=1192225958\n[STDOUT RAW] out_time_ms=1192225958\n[STDOUT RAW] out_time=00:19:52.225958\n[STDOUT RAW] dup_frames=0\n[STDOUT RAW] drop_frames=0\n[STDOUT RAW] speed= 178x\n[STDOUT RAW] progress=continue\n[STDERR RAW] size=   18432KiB time=00:19:52.22 bitrate= 126.6kbits/s speed= 178x\n[STDOUT RAW] bitrate= 127.4kbits/s\n[STDOUT RAW] total_size=20971520\n[STDOUT RAW] out_time_us=1316401958\n[STDOUT RAW] out_time_ms=1316401958\n[STDOUT RAW] out_time=00:21:56.401958\n[STDOUT RAW] dup_frames=0\n[STDOUT RAW] drop_frames=0\n[STDOUT RAW] speed= 182x\n[STDOUT RAW] progress=continue\n[STDERR RAW] size=   20480KiB time=00:21:56.40 bitrate= 127.4kbits/s speed= 182x\n[STDOUT RAW] bitrate= 126.5kbits/s\n[STDOUT RAW] total_size=22806528\n[STDOUT RAW] out_time_us=1441921958\n[STDOUT RAW] out_time_ms=1441921958\n[STDOUT RAW] out_time=00:24:01.921958\n[STDOUT RAW] dup_frames=0\n[STDOUT RAW] drop_frames=0\n[STDOUT RAW] speed= 187x\n[STDOUT RAW] progress=continue\n[STDERR RAW] size=   22272KiB time=00:24:01.92 bitrate= 126.5kbits/s speed= 187x\n[STDOUT RAW] bitrate= 126.7kbits/s\n[STDOUT RAW] total_size=24903680\n[STDOUT RAW] out_time_us=1572985958\n[STDOUT RAW] out_time_ms=1572985958\n[STDOUT RAW] out_time=00:26:12.985958\n[STDOUT RAW] dup_frames=0\n[STDOUT RAW] drop_frames=0\n[STDOUT RAW] speed= 191x\n[STDOUT RAW] progress=continue\n[STDERR RAW] size=   24320KiB time=00:26:12.98 bitrate= 126.7kbits/s speed= 191x\n[STDOUT RAW] bitrate= 127.9kbits/s\n[STDOUT RAW] total_size=27262976\n[STDOUT RAW] out_time_us=1705105958\n[STDOUT RAW] out_time_ms=1705105958\n[STDOUT RAW] out_time=00:28:25.105958\n[STDOUT RAW] dup_frames=0\n[STDOUT RAW] drop_frames=0\n[STDOUT RAW] speed= 194x\n[STDOUT RAW] progress=continue\n[STDERR RAW] size=   26624KiB time=00:28:25.10 bitrate= 127.9kbits/s speed= 194x\n[STDOUT RAW] bitrate= 127.0kbits/s\n[STDOUT RAW] total_size=29097984\n[STDOUT RAW] out_time_us=1832665958\n[STDOUT RAW] out_time_ms=1832665958\n[STDOUT RAW] out_time=00:30:32.665958\n[STDOUT RAW] dup_frames=0\n[STDOUT RAW] drop_frames=0\n[STDOUT RAW] speed= 197x\n[STDOUT RAW] progress=continue\n[STDERR RAW] size=   28416KiB time=00:30:32.66 bitrate= 127.0kbits/s speed= 197x\n[STDOUT RAW] bitrate= 126.9kbits/s\n[STDOUT RAW] total_size=30932992\n[STDOUT RAW] out_time_us=1949833958\n[STDOUT RAW] out_time_ms=1949833958\n[STDOUT RAW] out_time=00:32:29.833958\n[STDOUT RAW] dup_frames=0\n[STDOUT RAW] drop_frames=0\n[STDOUT RAW] speed= 199x\n[STDOUT RAW] progress=continue\n[STDERR RAW] size=   30208KiB time=00:32:29.83 bitrate= 126.9kbits/s speed= 199x\n[STDOUT RAW] bitrate= 127.5kbits/s\n[STDOUT RAW] total_size=33030144\n[STDOUT RAW] out_time_us=2072881958\n[STDOUT RAW] out_time_ms=2072881958\n[STDOUT RAW] out_time=00:34:32.881958\n[STDOUT RAW] dup_frames=0\n[STDOUT RAW] drop_frames=0\n[STDOUT RAW] speed= 201x\n[STDOUT RAW] progress=continue\n[STDERR RAW] size=   32256KiB time=00:34:32.88 bitrate= 127.5kbits/s speed= 201x\n[STDOUT RAW] bitrate= 127.9kbits/s\n[STDOUT RAW] total_size=35127296\n[STDOUT RAW] out_time_us=2197633958\n[STDOUT RAW] out_time_ms=2197633958\n[STDOUT RAW] out_time=00:36:37.633958\n[STDOUT RAW] dup_frames=0\n[STDOUT RAW] drop_frames=0\n[STDOUT RAW] speed= 203x\n[STDOUT RAW] progress=continue\n[STDERR RAW] size=   34304KiB time=00:36:37.63 bitrate= 127.9kbits/s speed= 203x\n[STDOUT RAW] bitrate= 127.3kbits/s\n[STDOUT RAW] total_size=36962304\n[STDOUT RAW] out_time_us=2322865958\n[STDOUT RAW] out_time_ms=2322865958\n[STDOUT RAW] out_time=00:38:42.865958\n[STDOUT RAW] dup_frames=0\n[STDOUT RAW] drop_frames=0\n[STDOUT RAW] speed= 205x\n[STDOUT RAW] progress=continue\n[STDERR RAW] size=   36096KiB time=00:38:42.86 bitrate= 127.3kbits/s speed= 205x\n[STDOUT RAW] bitrate= 127.5kbits/s\n[STDOUT RAW] total_size=38797312\n[STDOUT RAW] out_time_us=2434369958\n[STDOUT RAW] out_time_ms=2434369958\n[STDOUT RAW] out_time=00:40:34.369958\n[STDOUT RAW] dup_frames=0\n[STDOUT RAW] drop_frames=0\n[STDOUT RAW] speed= 205x\n[STDOUT RAW] progress=continue\n[STDERR RAW] size=   37888KiB time=00:40:34.36 bitrate= 127.5kbits/s speed= 205x\n[STDOUT RAW] bitrate= 127.8kbits/s\n[STDOUT RAW] total_size=40894464\n[STDOUT RAW] out_time_us=2560537958\n[STDOUT RAW] out_time_ms=2560537958\n[STDOUT RAW] out_time=00:42:40.537958\n[STDOUT RAW] dup_frames=0\n[STDOUT RAW] drop_frames=0\n[STDOUT RAW] speed= 207x\n[STDOUT RAW] progress=continue\n[STDERR RAW] size=   39936KiB time=00:42:40.53 bitrate= 127.8kbits/s speed= 207x\n[STDOUT RAW] bitrate= 127.9kbits/s\n[STDOUT RAW] total_size=42467328\n[STDOUT RAW] out_time_us=2656705958\n[STDOUT RAW] out_time_ms=2656705958\n[STDOUT RAW] out_time=00:44:16.705958\n[STDOUT RAW] dup_frames=0\n[STDOUT RAW] drop_frames=0\n[STDOUT RAW] speed= 206x\n[STDOUT RAW] progress=continue\n[STDERR RAW] size=   41472KiB time=00:44:16.70 bitrate= 127.9kbits/s speed= 206x\n[STDOUT RAW] bitrate= 128.0kbits/s\n[STDOUT RAW] total_size=43238060\n[STDERR RAW] size=   42225KiB time=00:45:02.28 bitrate= 128.0kbits/s speed= 206x\n[STDOUT RAW] out_time_us=2702289333\n[STDOUT RAW] out_time_ms=2702289333\n[STDOUT RAW] out_time=00:45:02.289333\n[STDOUT RAW] dup_frames=0\n[STDOUT RAW] drop_frames=0\n[STDOUT RAW] speed= 206x\n[STDOUT RAW] progress=end\n[ConversionWorker] STDERR pipe closed signal received.\n[ConversionWorker] Detected 'progress=end' for 高冷 03.wav\n[ConversionWorker] STDOUT pipe closed signal received.\n[ConversionWorker] Process finished and both stream pipes closed. Exiting loop.\n[ConversionWorker] Waiting for reader threads to join...\n[ConversionWorker] FFmpeg process ended. Return code: 0\n[ConversionWorker] Closing FFmpeg log file.\n